<?xml version="1.0" encoding="utf-8"?>
<!-- Generator: Adobe Illustrator 23.0.0, SVG Export Plug-In . SVG Version: 6.00 Build 0)  -->
<svg version="1.1" id="Layer_1" xmlns="http://www.w3.org/2000/svg" xmlns:xlink="http://www.w3.org/1999/xlink" x="0px" y="0px"
	 viewBox="0 0 15 15" style="enable-background:new 0 0 15 15;" xml:space="preserve">
<style type="text/css">
	.st0{fill:#EAEAEA;}
	.st1{fill:#044656;}
	.st2{fill:#61DAFB;}
</style>
<path class="st0" d="M13.54,15H1.46C0.66,15,0,14.34,0,13.54V1.46C0,0.66,0.66,0,1.46,0h12.07C14.34,0,15,0.66,15,1.46v12.07
	C15,14.34,14.34,15,13.54,15z"/>
<g>
	<path class="st1" d="M-6.01,13.16c0.06,0.28-0.15,0.43-0.61,0.46c-0.31,0.01-0.62-0.12-0.94-0.4c-0.27-0.24-0.48-0.62-0.63-1.15
		c-0.14-0.49-0.22-1.18-0.25-2.08c-0.03-1.01-0.08-1.7-0.15-2.08c-0.18,0.63-0.48,1.57-0.9,2.81c-0.25,0.68-0.4,1.08-0.46,1.17
		c-0.22,0.43-0.5,0.63-0.84,0.59c-0.67-0.15-1.19-0.53-1.55-1.13c-0.24-0.39-0.46-1.01-0.67-1.87c-0.22-0.94-0.41-1.57-0.57-1.89
		c-0.6,2.92-1.24,5.11-1.93,6.54c-0.1,0.21-0.39,0.2-0.88-0.04C-16.8,13.91-17,13.63-17,13.27c0-0.13,0.15-0.57,0.44-1.34
		c0.13-0.34,0.62-1.95,1.47-4.85c0.29-1.01,0.6-2.78,0.92-5.31c0.03-0.03,0.1-0.18,0.21-0.44c0.07-0.2,0.2-0.29,0.38-0.29
		c0.47,0,0.8,0.09,0.99,0.27c0,0.41,0.07,1.06,0.2,1.96c0.13,0.9,0.2,1.58,0.2,2.05c0.13,0.78,0.24,1.57,0.36,2.37
		c0.15,0.9,0.43,1.63,0.84,2.2c1.34-3.73,2.2-6.68,2.56-8.85C-8.39,0.82-8.18,0.7-7.81,0.7c0.52,0,0.81,0.17,0.88,0.5
		c0.1,0.5,0.15,1.08,0.15,1.74c0,0.21-0.01,0.66-0.04,1.36c-0.01,0.59-0.01,1.06,0,1.43C-6.7,8.69-6.43,11.16-6.01,13.16z"/>
</g>
<g>
	<path class="st2" d="M-14,10.45c0-0.79-1-1.55-2.52-2.02c0.35-1.56,0.2-2.79-0.49-3.19c-0.16-0.09-0.34-0.14-0.55-0.14v0.55
		c0.11,0,0.2,0.02,0.28,0.06c0.33,0.19,0.48,0.92,0.36,1.85c-0.03,0.23-0.07,0.47-0.12,0.72c-0.48-0.12-1-0.21-1.55-0.27
		c-0.33-0.45-0.67-0.86-1.02-1.22c0.8-0.74,1.55-1.15,2.05-1.15V5.11c-0.67,0-1.55,0.48-2.44,1.31c-0.89-0.83-1.77-1.3-2.44-1.3
		v0.55c0.51,0,1.26,0.4,2.05,1.14c-0.34,0.36-0.68,0.77-1.01,1.22c-0.55,0.06-1.08,0.15-1.56,0.27c-0.06-0.24-0.1-0.48-0.13-0.71
		c-0.11-0.93,0.03-1.66,0.36-1.85c0.07-0.04,0.17-0.06,0.28-0.06V5.12c-0.21,0-0.39,0.04-0.55,0.14c-0.69,0.4-0.84,1.63-0.49,3.18
		C-25.01,8.91-26,9.66-26,10.45c0,0.79,1,1.55,2.52,2.02c-0.35,1.56-0.2,2.79,0.49,3.19c0.16,0.09,0.34,0.14,0.55,0.14
		c0.67,0,1.55-0.48,2.44-1.31c0.89,0.83,1.77,1.3,2.44,1.3c0.21,0,0.39-0.04,0.55-0.14c0.69-0.4,0.84-1.63,0.49-3.18
		C-14.99,12-14,11.24-14,10.45L-14,10.45z M-17.18,8.82c-0.09,0.32-0.2,0.64-0.33,0.97c-0.1-0.2-0.21-0.39-0.32-0.59
		c-0.11-0.2-0.23-0.39-0.35-0.57C-17.84,8.68-17.51,8.74-17.18,8.82L-17.18,8.82z M-18.3,11.42c-0.19,0.33-0.39,0.64-0.59,0.93
		c-0.36,0.03-0.73,0.05-1.11,0.05c-0.37,0-0.74-0.02-1.1-0.05c-0.2-0.29-0.4-0.6-0.59-0.93c-0.19-0.32-0.35-0.65-0.51-0.97
		c0.15-0.33,0.32-0.66,0.51-0.98c0.19-0.33,0.39-0.64,0.59-0.93C-20.74,8.52-20.37,8.5-20,8.5c0.37,0,0.74,0.02,1.1,0.05
		c0.2,0.29,0.4,0.6,0.59,0.93c0.19,0.32,0.35,0.65,0.51,0.97C-17.95,10.78-18.12,11.1-18.3,11.42L-18.3,11.42z M-17.51,11.11
		c0.13,0.33,0.24,0.66,0.34,0.97c-0.32,0.08-0.66,0.14-1.01,0.2c0.12-0.19,0.24-0.38,0.35-0.58C-17.72,11.5-17.62,11.3-17.51,11.11
		L-17.51,11.11z M-20,13.72c-0.23-0.23-0.45-0.5-0.68-0.78c0.22,0.01,0.45,0.02,0.67,0.02c0.23,0,0.46,0,0.68-0.02
		C-19.54,13.22-19.77,13.48-20,13.72z M-21.81,12.28c-0.35-0.05-0.68-0.11-1-0.19c0.09-0.32,0.2-0.64,0.33-0.97
		c0.1,0.2,0.21,0.39,0.32,0.59C-22.05,11.9-21.93,12.09-21.81,12.28z M-20.01,7.19c0.23,0.23,0.45,0.5,0.68,0.78
		c-0.22-0.01-0.45-0.02-0.67-0.02c-0.23,0-0.46,0-0.68,0.02C-20.46,7.68-20.23,7.42-20.01,7.19z M-21.82,8.63
		c-0.12,0.19-0.24,0.38-0.35,0.58c-0.11,0.2-0.22,0.39-0.32,0.59c-0.13-0.33-0.24-0.66-0.34-0.97C-22.5,8.74-22.17,8.68-21.82,8.63
		L-21.82,8.63z M-24.03,11.69c-0.87-0.37-1.43-0.85-1.43-1.24s0.56-0.87,1.43-1.24c0.21-0.09,0.44-0.17,0.68-0.25
		c0.14,0.48,0.32,0.98,0.55,1.49c-0.23,0.51-0.41,1.01-0.54,1.48C-23.59,11.86-23.82,11.78-24.03,11.69L-24.03,11.69z M-22.71,15.18
		c-0.33-0.19-0.48-0.92-0.36-1.85c0.03-0.23,0.07-0.47,0.12-0.72c0.48,0.12,1,0.21,1.55,0.27c0.33,0.45,0.67,0.86,1.02,1.22
		c-0.8,0.74-1.55,1.15-2.05,1.15C-22.55,15.25-22.64,15.23-22.71,15.18L-22.71,15.18z M-16.91,13.32c0.11,0.93-0.03,1.66-0.36,1.85
		c-0.07,0.04-0.17,0.06-0.28,0.06c-0.51,0-1.26-0.4-2.05-1.14c0.34-0.36,0.68-0.77,1.01-1.22c0.55-0.06,1.08-0.15,1.56-0.27
		C-16.98,12.86-16.94,13.09-16.91,13.32z M-15.97,11.69c-0.21,0.09-0.44,0.17-0.68,0.25c-0.14-0.48-0.32-0.98-0.55-1.49
		c0.23-0.51,0.41-1.01,0.54-1.48c0.24,0.08,0.47,0.16,0.69,0.25c0.87,0.37,1.43,0.85,1.43,1.24
		C-14.55,10.84-15.11,11.32-15.97,11.69L-15.97,11.69z"/>
	<circle class="st2" cx="-20" cy="10.45" r="1.12"/>
	<path class="st2" d="M-17.57,5.11"/>
</g>
<g>
	<path class="st1" d="M12.12,8.89c0.06-0.21,0.18-0.35,0.34-0.43c0.16-0.08,0.33-0.1,0.48-0.06s0.29,0.13,0.38,0.26
		c0.1,0.14,0.11,0.31,0.04,0.53c-0.16,0.51-0.35,0.95-0.57,1.3c-0.22,0.36-0.45,0.65-0.7,0.87c-0.25,0.22-0.51,0.38-0.79,0.48
		c-0.28,0.1-0.56,0.15-0.85,0.15c-0.25,0-0.49-0.04-0.71-0.11c-0.22-0.07-0.42-0.18-0.59-0.32c-0.17-0.14-0.3-0.31-0.4-0.51
		c-0.1-0.2-0.15-0.43-0.15-0.69s0.05-0.53,0.15-0.81l1.39-3.93c0.02-0.06,0.04-0.12,0.05-0.18c0.01-0.06,0.02-0.12,0.02-0.17
		c0-0.15-0.05-0.28-0.14-0.37C10,4.8,9.88,4.75,9.73,4.75c-0.24,0-0.48,0.1-0.71,0.32C8.79,5.28,8.6,5.57,8.47,5.95l-1.88,5.37
		c-0.06,0.18-0.16,0.33-0.28,0.44c-0.13,0.11-0.26,0.18-0.41,0.22s-0.29,0.04-0.44,0.01c-0.14-0.03-0.26-0.09-0.36-0.18
		c-0.09-0.09-0.16-0.21-0.19-0.36C4.88,11.28,4.9,11.1,4.98,10.9l1.75-4.92C6.83,5.75,6.88,5.56,6.9,5.4s0.01-0.29-0.02-0.38
		C6.85,4.92,6.8,4.85,6.73,4.8C6.66,4.76,6.59,4.74,6.5,4.74c-0.24,0-0.47,0.1-0.7,0.3S5.38,5.5,5.22,5.81l-1.94,5.53
		C3.21,11.52,3.12,11.66,3,11.76c-0.12,0.11-0.25,0.18-0.39,0.22c-0.14,0.04-0.28,0.04-0.42,0.02c-0.14-0.03-0.26-0.08-0.36-0.17
		c-0.1-0.08-0.17-0.2-0.22-0.34c-0.04-0.14-0.03-0.3,0.02-0.49l2.62-7.44c0.08-0.23,0.21-0.39,0.38-0.47C4.79,3.01,4.96,2.98,5.14,3
		c0.17,0.02,0.33,0.08,0.48,0.17c0.14,0.09,0.24,0.2,0.28,0.32C5.9,3.48,5.94,3.44,6,3.39c0.07-0.06,0.15-0.11,0.26-0.17
		C6.38,3.15,6.51,3.1,6.66,3.06C6.82,3.02,6.98,3,7.17,3.02c0.32,0.02,0.56,0.1,0.74,0.23c0.18,0.13,0.34,0.31,0.5,0.54
		c0.24-0.26,0.54-0.45,0.89-0.58c0.35-0.13,0.68-0.19,0.99-0.19c0.27,0,0.51,0.04,0.73,0.13s0.41,0.21,0.57,0.36
		c0.16,0.15,0.28,0.34,0.37,0.55c0.09,0.21,0.13,0.44,0.13,0.68c0,0.26-0.05,0.51-0.14,0.77V5.5l-1.61,4.49
		c-0.02,0.06-0.04,0.12-0.05,0.18c-0.01,0.06-0.02,0.11-0.02,0.16c0,0.11,0.03,0.19,0.09,0.25c0.06,0.06,0.15,0.09,0.25,0.09
		c0.24,0,0.5-0.14,0.77-0.43C11.65,9.96,11.9,9.51,12.12,8.89z"/>
</g>
</svg>
