<?xml version="1.0" encoding="utf-8"?>
<!-- Generator: Adobe Illustrator 22.0.1, SVG Export Plug-In . SVG Version: 6.00 Build 0)  -->
<svg version="1.1" id="Layer_1" xmlns="http://www.w3.org/2000/svg" xmlns:xlink="http://www.w3.org/1999/xlink" x="0px" y="0px"
	 viewBox="0 0 800.2 389.1" style="enable-background:new 0 0 800.2 389.1;" xml:space="preserve">
<style type="text/css">
	.st0{fill:none;stroke:#000000;stroke-width:10;stroke-linecap:round;}
</style>
<path id="Unnamed" class="st0" d="M-81.8-199.9c0,0,26-43,51-68c33-40,52-61,81-104c49-73,2-30-16,16c-15,66,52-5,26,61
	c-7,31-27,52-39,47c-7.1-4.4,26-30,55-15c18,4,44,73-11,161c-26,36-48,47-42-18c11-56,74-134,87-146c66-73-14,48,29,15
	c32-19-2,28,78-38 M264.2-326.9c0,0-23,45-23,58 M264.2-367.9c60-51,121-62,77-11c-23,29,15,30,27,53c12,18-13,61-38,77
	c-60,26-8-63,50-21c18,13,53-1,99-30c127-91,0-39-25,2c-38,43-29,88,89,53c23-7,94-34,121-31"/>
<g>
	<path d="M254.8,283.3c-10.5,3.3-19.3,12.2-28,18.7c-3.6,2.7-7.1,5.3-10.7,8c0.1-0.2,0.2-0.4,0.3-0.6c3.8-12.2,0.7-27.2,0.1-39.9
		l-2-43.9c-0.7-14.6-1.3-29.3-2.1-43.9c-0.7-12.1,0.5-26.3-2.3-38.1c-4.5-19.4-24.4,1.2-31.4,7.4c-0.2,0.1-0.3,0.3-0.5,0.4
		c-0.4-1-1.7-1.7-2.8-0.8c-10.6,8.6-20,18.1-28.4,28.5c-0.2,0-0.3,0-0.5,0c-32.5,4.9-62.1,22.8-81.7,49.3c-6,8.1-15.1,20.4-4.4,28.7
		c11.2,8.6,28.3,1.6,39.3-3.6c16.7-7.8,36.1-21,55.1-12.3c30.4,13.8,0.6,46.3-15.1,57.4c-34.5,24.4-78.1,33.3-119.4,25.4
		c-4.4-0.9-6.3,6-1.9,6.8c36.2,6.7,73.8,1.4,106.5-15.8c21.4-11.3,65.9-42.7,42.1-71.5c-22.7-27.4-60,4.7-83.7,10.8
		c-4.6,1.2-11.5,2.8-16.2,0.6c-12.1-5.7-1.7-18.4,2.1-23.6c6.2-8.4,13.6-15.9,21.7-22.4c15.2-12.2,33.2-20.3,52.2-24.6
		c-6,7.9-11.3,16.2-16.1,25.1c-1.7,3.2,2.7,5.6,4.7,2.8c12.9-17.9,27.2-34.6,43.2-49.8c5.2-4.9,21.8-24.4,29.4-15.1
		c1.6,2,0.3,10.8,0.4,13.9c0.2,6.2,0.4,12.3,0.5,18.5c0.6,21.6,1.6,43.2,2.4,64.7c0.4,10.8,0.8,21.6,1.3,32.4
		c0.4,10.7-0.9,22.9,3.2,32.9c0.5,1.2,1.7,1.7,2.7,1.4l-18.7,13.9c-15.8,11.7-31.7,23.4-47.3,35.3c-0.5-0.8-1.6-1.2-2.5-0.3
		c-2.6,2.7-5.1,5.4-7.7,8.1c-1.6,1.6,0.5,4.6,2.5,3.3c20.9-14.2,41.3-29.1,61.9-43.8c10.3-7.3,20.6-14.7,30.9-22
		c8-5.7,17.4-10.6,23.2-18.7C258.6,285,256.7,282.7,254.8,283.3z"/>
	<path d="M397,220.2c-15.9-11.1-2.8-32.3-8.7-47.4c-3.2-8-10.7-14.6-19.7-12.6c-12.1,2.6-18,17.9-22.3,27.7
		c-3.7,8.3-6.8,16.7-9.5,25.3c0-0.6,0-1.3,0-1.9c0.2-2.9,0.4-5.7,0.6-8.4c1.7-22.4,0.7-44.9-2.5-67.1c0,0,0,0,0,0c0,0,0,0,0,0
		c0-0.2-0.1-0.5-0.1-0.7c-0.4-3.1-5.4-2.3-5.3,0.7c0.5,27.4,0.6,54.8,0.9,82.2c-0.2,1.2-0.4,2.4-0.6,3.5
		c-1.9,10.7-7.7,29.8-22.5,25.5c-8.3-2.4-11.6-8.5-12.4-15.7c3.6-9.6,5.5-19.8,5.6-30.2c0-3.8-5.2-4.2-6.4-0.9
		c-3.3,9.2-6.6,19.9-5.6,29.8c-1.5,3.8-3.3,7.5-5.4,11c-3.4,5.8-7.6,11.1-12.4,15.8c-3.1,3.1-22.5,21.3-25.8,6
		c-1.2-5.5,4.6-16.1,6.8-20.7c2.6-5.2,5.6-10.2,9.1-14.9c8.8-11.9,20.3-21.2,33.1-28.4c2.6-1.5,0.3-5.2-2.3-4
		c-17.5,8.2-31.9,21.5-41.9,38c-5.6,9.3-19.5,34-5.7,42.2c12.6,7.5,31.4-13.1,38.1-21.6c3.4-4.3,6.4-9,8.9-13.8
		c1.3,2.7,3.1,5.2,5.5,7.6c8.4,8.1,20.7,8,28.7-0.6c2.2-2.4,3.9-5.1,5.4-8c0.5,3.3,5.8,4.1,6.5,0.4c2.6-13.2,6.2-26.2,11.2-38.8
		c2.7-6.9,5.7-13.9,9.3-20.5c4.3-8,16-18.9,23.2-7.1c9.4,15.4-8.6,42.8,13.5,52.2C397.4,226.2,399.9,222.2,397,220.2z"/>
	<path d="M499.1,188.9c-6.6,21-31.7,11.1-37.4-4.5c-0.1-0.2-0.1-0.5-0.2-0.7c4.3-11.5,5.9-23.9,4.7-36.2c0.3-0.7,0.2-1.6-0.2-2.2
		c-0.2-1.6-0.4-3.1-0.7-4.7c-0.6-2.9-5.1-2.8-5.8,0c-0.5,1.9-0.9,3.8-1.4,5.8c-16.9,6.1-31.4,16.8-41.8,31.8
		c-7.3,10.5-17.5,31.3-3.6,41.3c14.5,10.4,32-7.3,39.6-18.2c2.3-3.4,4.4-6.9,6.2-10.6c2,3.9,4.8,7.5,8.8,10.6
		c12.4,9.6,32.8,5.3,35.8-11.3C503.6,187.4,499.9,186.3,499.1,188.9z M453.2,187.2c-3,6.3-6.9,12.1-11.5,17.3
		c-5.4,6.1-22.8,20.7-29.2,4.8c-4.8-12,8.4-29.2,15.8-37.2c8.1-8.7,17.8-15.5,28.5-20.3c-2.1,10-3.5,20.7-1.4,30.3
		C454.7,183.8,454,185.5,453.2,187.2z"/>
	<path d="M750.3,22.9C686,44,621.8,65,557.5,86.1c-1-7.7-2.6-15.4-4.8-23c-0.9-3.1-5.5-2.4-5.6,0.8c-0.3,8.6-0.5,17.2-0.5,25.8
		c-91.7,30-183.4,60.1-275.2,89.9c-0.7,0.2-0.4,1.4,0.3,1.2c91.6-29,183.2-57.9,274.8-86.8c0,9.6,0.3,19.2,0.7,28.9
		c-17.4,5.2-34,17.2-41,34.4c-5.4,13.2-0.2,30.3,16.9,27.4c13.6-2.3,21.6-16.9,26.5-31c1.6,11.8,5.7,24.4,20.1,22.1
		c3.2-0.5,2.3-5.4-0.7-5.5c-10.7-0.1-14-15.7-15.1-30.8c0.2-0.7,0.3-1.3,0.5-2c3.9-15.5,5-31.4,3.5-47.1
		C622.7,70,687.4,49.7,752,29.3C756.1,28,754.3,21.6,750.3,22.9z M540.3,160.3c-3.3,6.7-7.3,14.8-14.7,17.5
		c-8.8,3.3-15-1.5-15.9-10.5c-0.5-4.3,2.9-10.4,5-14c7.3-12.6,19.4-21.4,33-26.1c0.2,3.8,0.5,7.6,0.7,11.4
		C546.4,146,543.7,153.3,540.3,160.3z M552.6,93.7c0.3,4.6,0.5,9.1,0.4,13.7C552.8,102.8,552.6,98.2,552.6,93.7z"/>
	<path d="M610.8,132.5c-0.8-8.8-0.4-18.4-3.3-26.8c-0.7-1.9-4-2.4-4.4,0c-1.6,9.4,0.2,19.4,0.9,28.8c0.6,8.4-0.2,17.6,3.4,25.3
		c0.9,1.8,3.6,1.2,4.1-0.5C614,150.9,611.6,141.2,610.8,132.5z"/>
	<path d="M603.2,58.4c-0.4-4.3-6.4-4.3-6.7,0c-0.1,1.2-0.2,2.5-0.3,3.7c-0.4,4.7,7.7,4.7,7.3,0C603.5,60.9,603.3,59.6,603.2,58.4z"
		/>
	<path d="M652.6,151.7c-2.2-17-6.8-33.8-9.5-50.8c-3.1-19.6-4.8-39.3-7.3-58.9c-0.3-2.1-3.3-2.2-3.3,0c-0.5,19.2,1.4,38.5,3.9,57.5
		c2.3,17.6,4.4,36.2,10.2,53C647.7,155.5,653.1,155.3,652.6,151.7z"/>
	<path d="M731.6,112.9c-9.1-2.8-19.1-1.9-28.5-2c-10.1-0.1-20.3-0.3-30.4-0.4c-2.3,0-4.7-0.1-7-0.1c-7.8-5.3-8.1-10-1.1-14.2
		c2.6-2,6-3.1,8.7-4.9c4.5-2.9,7.6-5.7,9.3-10.8c0.9-2.6-2.8-3.9-4.2-1.8c-4.5,6.9-39.6,21.9-22.6,35.4c7,5.6,22.6,2.7,30.8,2.9
		c14.3,0.2,31.1,3,44.9-0.9C733.2,115.7,733.1,113.4,731.6,112.9z"/>
	<path d="M756.8,118.4c-37.2,12.9-73.4,30.1-109.8,45c-36.6,15-73.3,29.7-110,44.5c-73.3,29.6-146.6,59.5-219.8,89.4
		c-1.5,0.6-0.9,3.1,0.7,2.5c74.2-29.3,148.4-58.7,222.6-88.2c36.7-14.6,73.4-29.4,110.1-43.8c36.1-14.2,73.6-26.7,108.9-42.8
		C763.2,123.2,760.6,117.1,756.8,118.4z"/>
</g>
</svg>
